<?xml version="1.0" standalone="no"?>
<!DOCTYPE svg PUBLIC "-//W3C//DTD SVG 20010904//EN"
 "http://www.w3.org/TR/2001/REC-SVG-20010904/DTD/svg10.dtd">
<svg version="1.0" xmlns="http://www.w3.org/2000/svg"
 width="700.000000pt" height="700.000000pt" viewBox="0 0 700.000000 700.000000"
 preserveAspectRatio="xMidYMid meet">
<metadata>
Created by potrace 1.11, written by Peter Selinger 2001-2013
</metadata>
<g transform="translate(0.000000,700.000000) scale(0.100000,-0.100000)"
fill="#000000" stroke="none">
<path d="M3338 6705 c-2 -1 -46 -6 -98 -10 -52 -3 -106 -8 -120 -10 -607 -80
-1151 -307 -1610 -672 -135 -107 -306 -270 -419 -398 -118 -133 -274 -354
-372 -525 -49 -85 -159 -303 -159 -315 0 -2 -11 -28 -24 -57 -68 -152 -173
-519 -191 -665 -2 -13 -6 -42 -10 -65 -19 -122 -24 -163 -31 -278 -15 -245 -2
-499 37 -735 96 -585 379 -1175 768 -1604 76 -84 234 -240 296 -292 22 -19 45
-38 51 -44 6 -5 26 -21 44 -35 18 -14 49 -38 69 -54 114 -91 332 -226 508
-313 121 -61 366 -163 390 -163 7 0 21 -4 31 -10 58 -32 416 -116 582 -135 25
-3 61 -7 80 -10 121 -16 434 -22 560 -11 148 13 200 19 300 36 30 5 71 12 90
15 19 3 42 8 50 10 8 2 28 6 43 9 55 9 283 76 377 109 370 133 712 333 1015
591 117 101 260 248 290 300 39 66 42 141 10 220 -35 86 -163 312 -318 560
-15 25 -220 323 -244 355 -23 32 -184 240 -205 266 -65 79 -190 228 -223 265
-67 74 -149 163 -175 191 -79 81 -120 130 -116 137 4 7 17 146 19 201 0 18
352 -342 487 -499 12 -14 36 -41 53 -60 87 -96 219 -249 237 -274 8 -12 19
-25 26 -31 24 -21 371 -451 619 -770 60 -77 113 -144 117 -150 5 -5 56 -72
114 -147 58 -76 107 -138 109 -138 3 0 -11 26 -29 58 -18 31 -62 108 -97 170
-35 62 -68 120 -74 130 -107 186 -490 745 -562 820 -8 8 -26 30 -41 50 -15 21
-29 39 -32 42 -3 3 -34 41 -70 85 -218 269 -635 708 -888 937 l-83 75 27 32
c25 30 30 32 72 26 25 -3 69 -14 98 -25 29 -10 55 -16 58 -13 3 3 58 7 124 9
126 3 162 7 187 21 12 7 42 -4 109 -38 108 -56 166 -73 193 -54 20 13 57 5 59
-14 1 -6 2 -16 3 -23 2 -21 13 0 18 35 2 20 -1 38 -9 44 -7 6 -67 27 -133 47
-266 81 -252 78 -304 64 -48 -14 -70 -19 -126 -30 -49 -10 -52 -10 -85 21 -31
28 -103 68 -154 85 -17 6 -17 8 -2 31 47 71 88 160 104 223 14 55 25 76 48 94
81 63 102 143 57 221 l-21 35 28 12 c92 38 216 6 459 -118 128 -65 161 -78
161 -62 0 16 -63 57 -155 99 -121 57 -124 58 -175 74 -155 50 -251 61 -324 37
-35 -11 -38 -10 -72 24 l-35 35 14 48 c31 104 -6 265 -113 488 -53 111 -92
167 -106 152 -3 -3 33 -84 80 -179 113 -228 146 -352 112 -431 l-15 -37 -37
25 c-74 50 -172 24 -225 -59 -10 -16 -26 -31 -36 -32 -72 -7 -213 -66 -264
-110 -26 -23 -37 -16 -59 34 -12 26 -39 68 -61 94 -21 26 -39 57 -39 70 0 13
11 65 25 117 24 92 24 95 8 150 -9 31 -18 61 -19 66 -6 34 -30 112 -56 188
l-31 88 -43 -2 c-24 -2 -41 -6 -38 -11 3 -4 12 -8 20 -8 18 0 36 -42 21 -52
-21 -13 -6 -82 36 -172 25 -51 50 -96 56 -100 8 -5 8 -13 1 -26 -14 -27 -20
-71 -24 -203 -2 -65 -6 -121 -9 -124 -3 -3 3 -27 13 -53 10 -27 21 -71 24 -99
4 -45 2 -52 -21 -71 -20 -16 -40 -20 -92 -20 -64 1 -68 2 -125 49 -55 46 -89
61 -140 61 -12 0 -44 15 -71 33 -64 44 -279 173 -375 227 -130 72 -451 227
-555 268 -55 21 -109 42 -120 47 -51 20 -145 53 -145 50 0 -2 17 -12 38 -23
73 -38 158 -85 222 -122 36 -20 85 -48 110 -62 78 -43 391 -232 500 -303 58
-37 126 -81 153 -98 26 -16 46 -31 45 -33 -5 -4 -78 -13 -156 -19 l-72 -6
-180 113 c-99 62 -180 119 -180 126 0 6 -9 12 -20 12 -11 0 -57 23 -101 50
-44 27 -83 50 -85 50 -2 0 -21 11 -42 23 -20 13 -68 41 -107 62 -38 21 -92 51
-120 67 -113 64 -498 253 -615 302 l-33 13 29 30 c16 16 58 53 94 83 36 30 67
57 70 61 3 3 43 33 90 66 234 168 499 301 762 382 102 32 295 77 368 86 25 3
61 8 80 10 141 19 377 24 544 12 54 -4 101 -9 105 -11 3 -2 33 -7 66 -11 33
-3 92 -13 130 -21 39 -9 79 -17 90 -20 38 -8 210 -56 230 -64 11 -5 54 -21 95
-35 41 -15 134 -56 205 -90 797 -384 1342 -1140 1460 -2025 54 -414 -13 -976
-123 -1018 -71 -27 -119 4 -337 220 -189 186 -233 228 -243 228 -3 0 3 -10 14
-22 21 -24 68 -80 121 -144 185 -226 163 -199 264 -319 241 -288 539 -687 539
-724 0 -62 82 89 165 303 51 132 118 358 141 471 2 11 6 31 9 45 8 36 24 128
31 180 3 25 8 53 10 63 25 136 24 619 -2 782 -3 17 -7 47 -9 69 -3 21 -7 46
-9 55 -3 9 -8 36 -11 61 -19 137 -106 439 -181 622 -191 469 -461 851 -859
1212 -136 123 -425 322 -619 425 -280 149 -702 291 -971 327 -27 3 -58 8 -69
10 -10 2 -41 6 -70 9 -28 3 -69 8 -91 11 -43 5 -452 13 -457 9z m-1913 -1837
c332 -82 833 -311 1364 -625 131 -77 438 -268 451 -280 3 -2 -23 -31 -56 -63
l-61 -59 -94 24 c-52 14 -107 25 -124 25 -50 0 -144 -52 -240 -132 -137 -114
-212 -174 -273 -220 l-73 -55 -68 12 c-42 7 -77 8 -92 3 -13 -5 -71 -11 -129
-14 -173 -7 -192 -10 -207 -30 -14 -20 -17 -43 -6 -71 6 -16 8 -15 13 7 8 32
42 34 88 7 41 -24 110 -19 199 15 53 20 140 26 198 14 46 -9 87 18 253 171
138 127 254 223 269 223 5 0 20 -11 32 -24 12 -13 49 -31 82 -41 61 -17 64
-21 29 -55 -14 -14 -251 -283 -290 -329 -25 -30 -50 -59 -55 -65 -6 -6 -38
-47 -73 -91 -34 -44 -71 -91 -82 -105 -70 -87 -235 -352 -301 -485 -174 -346
-179 -568 -13 -614 69 -19 233 7 344 55 139 61 386 193 435 233 11 9 32 23 46
30 25 12 288 206 299 220 3 3 28 24 55 45 28 22 68 56 90 75 23 20 72 63 110
96 39 33 92 81 120 106 27 25 63 57 80 72 l30 27 20 -59 c11 -33 30 -70 43
-83 12 -14 22 -28 22 -33 0 -8 -86 -115 -137 -170 -15 -17 -41 -46 -57 -65
-15 -19 -63 -73 -105 -118 -42 -46 -80 -91 -85 -100 -5 -9 -8 -43 -7 -76 5
-114 3 -133 -23 -211 -31 -94 -33 -135 -5 -192 24 -50 20 -73 -13 -73 -19 0
-20 -2 -8 -10 21 -13 53 -12 73 3 19 13 25 57 31 212 3 55 8 111 14 124 6 16
5 47 -3 88 -15 78 -18 72 154 283 182 223 188 232 216 291 31 67 31 82 1 203
l-24 97 119 121 119 121 47 -39 c45 -36 172 -143 183 -154 3 -3 23 -20 45 -39
125 -106 190 -172 220 -221 36 -58 79 -107 132 -148 35 -26 44 -48 16 -38 -17
7 -17 6 0 -11 15 -15 20 -16 39 -4 21 13 26 10 86 -55 401 -436 551 -797 414
-998 -58 -85 -317 -281 -528 -400 -178 -100 -475 -219 -624 -250 -14 -3 -52
-12 -85 -20 -33 -8 -78 -17 -100 -20 -23 -4 -51 -8 -63 -11 -168 -32 -586 -38
-728 -11 -12 2 -45 7 -75 11 -169 21 -450 102 -640 185 -555 244 -998 658
-1282 1200 -101 193 -194 452 -236 660 -20 97 -21 104 -27 155 -4 28 -8 53
-10 56 -7 12 -18 232 -18 344 1 305 49 578 154 876 44 124 158 364 215 453 40
63 22 61 170 24z m2152 -413 l102 -71 -60 -57 -60 -57 -57 43 c-31 23 -59 44
-62 47 -6 6 -36 27 -133 93 -38 26 -67 47 -65 47 39 5 95 15 143 24 33 7 67
10 75 8 8 -3 61 -37 117 -77z m898 -861 c22 -19 55 -42 73 -50 31 -14 32 -16
32 -74 0 -32 -4 -61 -8 -64 -5 -3 -51 37 -102 89 -93 93 -94 94 -75 115 25 27
34 26 80 -16z"/>
</g>
</svg>
