<svg xmlns="http://www.w3.org/2000/svg" fill="none" viewBox="0 0 172 147"><defs/><path fill="#6D6A46" fill-rule="evenodd" d="M80.28 1.42c.45.46 1.37.53 1.75.15.34-.34.31-.86-.03-1.24a73.41 73.41 0 0166.78 30.7l-3.5.99a69.6 69.6 0 00-5.94-7.06c.65-.05 1.06-.49 1.06-1.24 0-.33-.12-.7-.24-1.09l-.14-.43-.53.23c-.12.06-.24.12-.37.16.06-.13.1-.26.14-.4.15-.52-.07-.9-.6-1.13.07.15.07.3.07.45l-.07.01v.07c0-.04-.03-.06-.05-.08-.02-.02-.03-.03-.03-.07l-.03-.07c-.28-.77-.3-.85-1.2-.85a.87.87 0 00-.6.23c-.26.33-.52.65-.69 1.02-.94-.85-1.9-1.68-2.88-2.49l.14-.05c.54-.3.77-1.14.46-1.75-.17-.34-.5-.59-.87-.7a.43.43 0 00-.04-.37c-.08-.22-.38-.3-.61-.15-.2.13-.28.33-.2.52l-.03.01c-.37.14-.66.55-.78.97A69.6 69.6 0 0069.62 6.21a69.77 69.77 0 00-50.39 62.11l-3.5 1c.14-2.64.42-5.25.84-7.83l.69.44c0-.03 0-.07.02-.13.02-.1.05-.28.05-.48v-.08a3.71 3.71 0 00-.23-.53l-.22-.23-.19.31v-.02l.19-.36-.17.27c.54-3.09 1.27-6.13 2.2-9.1.04.05.1.1.17.15.15.1.33.13.6.19.15.02.33.06.54.11l-.05-.2c-.12-.4-.2-.67-.33-.94a.52.52 0 00-.64-.25A73.18 73.18 0 0162.31 5v.15h.92a1.98 1.98 0 01-.05-.48A74.71 74.71 0 0179.93.55c-.04.29.07.6.35.87zm18.64.08v.45h.69l-.08-.6v-.31l-.46.08V.96H99v.16l-.38.07v.3h.3zM42.45 19.6l.11-.05c.08-.03.12-.05.12-.1l-.38-.69v-.15h-.08l-.08-.08h-.07v.08l-.3.08-.46.07v.08c.07.46.45.68.99.68l.15.08zM18.32 59.04c.15.1.24.13.32.16l.14.06-.12.16-.11.15s-.23-.08-.23-.15v-.38zM128 11.47l-.12.03a.27.27 0 01-.11.04c-.08 0-.08-.15-.08-.15.04 0 .08-.02.12-.04.03-.02.07-.04.11-.04 0 0 .08.08.08.16zm-3.43.91c.15-.08.38-.46.3-.6-.07-.24-.37-.31-.53-.24-.23.08-.38.38-.23.61.08.15.23.3.46.23zm5.1.91c-.15.23-.3.38-.53.54-.08.07-.3 0-.46-.08-.07 0-.15-.23-.15-.38.08-.23.23-.23.38-.23.3.15.53.15.76.15zM116.12 6.9c.08-.15.16-.3.23-.53l-.02-.01-.05-.02c-.19-.06-.32-.1-.46.03-.15 0-.23.23-.15.38.07.15.38.23.45.15z" clip-rule="evenodd"/><path fill="#6D6A46" fill-rule="evenodd" d="M35.67 34.22l.14-.15c.08-.1.15-.18.25-.23.15-.23.3-.45.45-.76 0-.04.02-.05.04-.07.02-.02.04-.04.04-.08l-.13-.07A65.82 65.82 0 0177.09 8.12c.76.46 1.35 1.05 1.51 1.52l.04.14c-2.5.41-5 .97-7.5 1.69a64.08 64.08 0 00-37.8 29.4 1.03 1.03 0 00-.1-.18c-.3-.38-.69-.3-1 0-.3.38-.22.76.16 1 .12.05.26.09.41.12a64.23 64.23 0 00-7.36 21 1.5 1.5 0 00-.89.34c-.38.45-.15 2.2.38 2.74l.08.06-.08.7-1.98.6a66.54 66.54 0 0112.59-33.18l.12.15zm-9.81 22.84l.3.38-.76.6-.3-.3.76-.68zM78.45 7.88a3.5 3.5 0 011.16 1.75 64 64 0 0132.79 3.76c.19-.24.49-.45.9-.63 1.15-.53 2.82 0 3.36.99.16.37.17.95.06 1.53a64.62 64.62 0 0114.69 9.7c.04-.05.1-.1.16-.12.3-.07.61 0 .77.23.06.2 0 .47-.17.58a64.13 64.13 0 017.4 7.94l1.97-.6a65.93 65.93 0 00-15.22-14.41v.02h-.23v-.15h.01l.01-.02a66.53 66.53 0 00-24.53-10.2.8.8 0 01.08.1c.38.38.16 1.06-.38 1.29-.53.23-.99 0-1.14-.46-.04-.2 0-.4.05-.67.03-.15.06-.31.08-.5-3.82-.66-7.73-1-11.67-.97.04.17.1.38.2.62l-.55-.12a1.62 1.62 0 01-.6-.18.6.6 0 01-.25-.3c-2.97.07-5.96.34-8.95.82zm14.69-.14V7.5c.04 0 .07.02.11.04l.12.03v.08c-.08.08-.16.08-.23.08zM118 14.22l.17.06c0-.05 0-.1.02-.16.01-.09.03-.17-.02-.22 0-.07-.23-.07-.3-.07v.3c0 .05.05.07.13.09zm4.89 2.65c-.3.38-.3.38-.54.08.07 0 .14-.02.22-.04.09-.02.2-.04.32-.04zM74.33 141.6a69.46 69.46 0 0035.89-1.79c.23.19.6.22.91.06.23-.12.38-.3.43-.5a69.47 69.47 0 0026.3-16.25h.64v-.53a1 1 0 01-.03-.08 70.35 70.35 0 0020.12-43.56c.18.34.44.63.69.79.15.07.3.15.46.15.16-.02.33-.02.5-.03.47 0 .93-.02 1.32-.35a.6.6 0 00.51-.24c-.07.9-.16 1.78-.27 2.67a1.28 1.28 0 00-.16-.38c-.23-.53-.76-.68-1.3-.45-.45.23-.76.84-.53 1.3.23.45 1.07.75 1.45.6.2-.09.36-.22.45-.4l-.22 1.58a.43.43 0 00-.39-.04c-.15.15-.22.3-.07.46l.37.17A73.68 73.68 0 01149.2 115a1.5 1.5 0 00-.82-.8c.08-.15.12-.34.02-.5-.08-.15-.38-.22-.61-.15-.22.15-.3.36-.17.58-.08.02-.15.04-.22.08-.6.22-.98 1.14-.76 1.75.21.46.76.75 1.31.8a73.23 73.23 0 01-16.98 16.56.82.82 0 00-.16-.54c-.16-.22-.4-.36-.75-.56l-.47-.28c0 .26-.02.48-.04.66-.03.3-.05.52.04.71.06.33.28.54.56.58a73.23 73.23 0 01-20.88 9.77 72.98 72.98 0 01-39.78.25c-.16-.91.15-1.31 1.2-1.77.68-.3 1.37-.46 2.2-.3.56.1 1.04.05 1.44-.26zm81.14-44.13c.46-.07.84.08 1.07.38l-.38.38-.3.16-.08.07h-.08v-.07l-.68-.61a.6.6 0 01.3-.3h.15zm-19.94 29.76c0-.3 0-.68.08-.76.15-.08.45 0 .6.08.08.07.08.45 0 .53-.04.1-.17.1-.34.1-.1.01-.22.02-.34.05zm24.59-38.9l.3.08c-.11-.14-.17-.22-.24-.24-.08-.02-.17.01-.37.1l.3.07zm-1.3 4.35s.08 0 .23.07v-.15c-.08-.08-.15-.08-.23-.08v.16z" clip-rule="evenodd"/><path fill="#6D6A46" d="M162.22 77.08c.07-1.34.1-2.69.1-4.04l-3.5.99c0 .89-.04 1.77-.08 2.65.2-.3.46-.54.84-.67a2.21 2.21 0 012.64 1.07zM51.68 132.34c6.35 4 13.32 6.99 20.66 8.8l-.51.04-.69.06-.94.1-.01.01-.95.11c-.44.05-.87.14-1.3.24-1.04.23-2.06.46-3.2-.08l-.57.6a73.38 73.38 0 01-37.4-30.14l3.5-.98a69.59 69.59 0 0021.3 21.16l-.22.22-.38.3c.16.16.23.24.46.31l.25-.75z"/><path fill="#6D6A46" fill-rule="evenodd" d="M125.46 128.53a66.41 66.41 0 0029.7-53.51l-1.97.53a63.96 63.96 0 01-3.01 17.18c.22 0 .43.08.65.25.38.3.38.76.3 1.14-.07.3-.53.69-.83.61a2.02 2.02 0 01-.7-.3 64.67 64.67 0 01-10.62 19.1h.05c-.15.19-.22.28-.29.3-6.5 7.99-14.99 14.5-24.98 18.67v.21l-.34-.07a65.16 65.16 0 01-16.8 4.42c-.02.18-.06.4-.06.67-.2-.13-.4-.23-.57-.32-.15-.09-.29-.16-.4-.24a64.43 64.43 0 01-59.84-27.75l-1.98.53a66.46 66.46 0 0038.45 27.42l.67-.47c.08 0 .08.07.08.07l.3.54.54.07-.08.16c.78.19 1.57.36 2.36.52v-.53l.08.08h.07c.08 0 .15.08.23.15l.38.23.08.15v.08a65.92 65.92 0 0030.36-1.52 66.31 66.31 0 0017.55-7.97l-.42-.1.11-.76.12-.76.91.15c0 .36-.03.72-.1 1.08zm17.91-19.72c-.04 0-.08.02-.11.04-.04.02-.08.04-.12.04-.07 0-.07-.15-.07-.15.03 0 .07-.02.11-.04.04-.02.08-.04.11-.04.08 0 .08.15.08.15zm-71.92 27.33v-.23l-1-.08v.38l1-.07zm11.41 2.05c-.07.08-.15.15-.15.23l-.91-.38c.07 0 .07-.08.07-.08.08-.23.23-.38.38-.53l.61.76zm65.46-38.59c.23-.38.53-.45 1.14-.3-.46.38-.76.46-1.14.3z" clip-rule="evenodd"/><path fill="#6D6A46" d="M57.44 96.25l.61 2.14-2.82.76.69 2.2 2.36-.68.6 2.05-2.43.69.76 2.43 3.05-.9.68 2.12-3.54 1.04a.92.92 0 00-.95-.13h-.07l-.08.08c-.13.14-.24.3-.3.45l-.54.16-3.12-10.96 5.1-1.45zM65.2 103.71c.39-.15.61-.3.77-.53.07-.14.1-.26.14-.38.04-.13.08-.26.16-.38-.15-.38-.53-.76-1.22-1.07-1.14-.53-1.9-.91-2.28-1.21-.38-.3-.69-.69-.91-1-.23-.3-.46-.68-.54-1.06a2.84 2.84 0 01.28-2.32h.12l.36-.04c.09-.25.1-.47.06-.66.38-.36.88-.64 1.47-.78a3.63 3.63 0 012.2 0l.77 2.74c-.84-.61-1.53-.77-2.14-.61-.22.07-.45.22-.6.45-.16.23-.23.46-.16.69.16.38.61.76 1.37 1.06.76.3 1.37.61 1.75.84a3 3 0 01.46.34c.04.2.05.38 0 .57v.16l.68.1c.18.32.34.68.46 1.04.3.99.23 1.9-.23 2.66a3.83 3.83 0 01-4.72 1.45l-.76-2.59c.92.53 1.75.76 2.52.53zM73.5 93.9l2.59 8.82-2.36.69-2.59-8.83-2.13.6-.6-2.12 4.44-1.28-.19.36-.15.23.08.08h.07c.04 0 .06.02.08.04.02.02.04.03.08.03l.45-.76-.08-.08 1.83-.53.61 2.14-2.13.6zM95.95 93.44l-2.2-7.69 2.36-.68 2.13 7.3c.07.46.3.84.6 1.07.31.23.62.23 1 .15.3-.08.53-.3.68-.6.15-.31.15-.7 0-1.15l-2.13-7.38 2.36-.69.9 3.12c-.07-.08-.14-.15-.22-.07-.04 0-.06.03-.09.07a.41.41 0 01-.06.08c.08 0 .23.07.3.15 0-.04.03-.08.04-.11a.32.32 0 00.04-.1l1.37 4.7c.17.55.22 1.08.16 1.57-.41-.13-.63-.2-.84-.2-.16.08-.3.53-.23.61.15.23.46.46.68.38.11 0 .18-.08.25-.2-.07.17-.15.34-.25.5a3.7 3.7 0 01-2.28 1.6c-1.14.3-2.13.3-2.9-.15-.83-.38-1.36-1.14-1.67-2.28zM119.1 87.96l2.73-.76.61 2.13-5.1 1.44-3.12-10.88 2.36-.68 1.74 6.06-.3-.13v.15c0 .16 0 .3.08.46l.08.23.37.1.54 1.88z"/><path fill="#6D6A46" fill-rule="evenodd" d="M122.29 77.56l2.34-.67 3.14 10.9-2.34.67-3.14-10.9zm2.62 6.22a17.21 17.21 0 01-.19-.08v.28c-.02.21-.03.35.08.4 0 .08.3.23.38.15l.07-.11c.07-.12.14-.23.08-.34-.06-.12-.21-.2-.42-.3z" clip-rule="evenodd"/><path fill="#6D6A46" d="M132.87 76.85l2.51 8.75-2.36.68-.96-3.35c.5-.05 1.06-.48 1.42-.83.68-.76.45-1.37-.61-1.68a4.97 4.97 0 00-1.58-.16l-.78-2.73-2.2.61-.62-2.13 6.62-1.9.61 2.13-2.05.6zM143.37 78.06l1.45 4.87-2.36.61-1.37-4.8-4.65-5.24 2.6-.76 2.35 3.04.38-3.8 2.29-.69-.69 6.77z"/><path fill="#6D6A46" fill-rule="evenodd" d="M104.86 119.47l-.84 6.31-4.03-4.87-3.93.72-.01-.02h-.01l-.01-.01c-.38-.38-1.3-.38-1.75.08a.93.93 0 00-.16.3l-.37.08 3.42-5.33-3.12-5.63 6.17 1.6 4.41-4.65.38 6.4 1.24.6-.02.05v.03l.3.08.12.02 4.07 1.95-5.86 2.29zm-.38.07l-.53.84-.16-.15.54-.84.15.15zm-2.2-8.3c.14.1.23.14.31.18l.05.02h.02l.01.01.06.03c-.04.03-.08.1-.12.15-.03.06-.07.11-.11.15 0 0-.23-.08-.23-.15-.04-.05-.03-.1-.02-.17l.02-.21z" clip-rule="evenodd"/><path fill="#6D6A46" d="M86.67 121.6l-.61 4.64-2.97-3.65-4.57.91 2.52-3.96-2.21-4.03 4.49 1.14 3.2-3.35.22 4.65 4.27 1.97-1.62.63h.01v-.02c.24-.22.47-.83.31-.99-.14-.24-.42-.36-.78-.52-.2-.08-.42-.18-.66-.31l-.1.56c-.06.3-.1.56-.06.8.11.38.52.64.88.63l-2.32.9z"/><path fill="#6D6A46" fill-rule="evenodd" d="M120.54 111.86l-.61 4.56-2.9-3.57-4.56.91 2.51-3.96-2.28-4.03 2.86.73v.03l.01.02v.02l.01.02.01.02c.15.45.61.68 1.14.45.11-.05.21-.11.3-.2l.16.05 3.2-3.35.3 4.57 4.19 1.98-4.34 1.75zm-3.6-1.76l.02.16c.15 0 .23-.08.3-.15.08-.08 0-.23 0-.23h-.02l-.06-.02c-.08-.01-.17-.03-.22.02-.05.05-.03.13-.02.22zM75.63 25.24l4.04 4.87 6.24-1.14-3.43 5.33 1.15 2.13c-.16 0-.39.08-.39.15-.15.3-.22.61-.3 1 0 .07.15.22.23.3.3.23.6.3.99.15.1-.04.18-.1.25-.17l1.12 2.07-5.03-1.3c.01-.25.04-.46.07-.63.03-.22.05-.38.01-.5-.23-.46-.69-.76-1.14-.46-.23.08-.38.68-.23.84.15.2.4.33.72.5l.32.18-.89-.23-4.34 4.65-.15-2.52c.02 0 .1.01.23.08v-.15c-.08-.08-.15-.08-.23-.08v.1l-.23-3.83-5.78-2.74 5.94-2.28.83-6.32zm2.74 12.1c.04.04.1.06.15.08.06.02.12.04.16.08l-.08.15a.58.58 0 01-.15-.04l-.15-.04c0-.07 0-.07.07-.23zm-2.5-7.15c.22.46 1.06.76 1.44.6.53-.22.76-.83.38-1.44-.23-.53-.76-.68-1.3-.45-.45.22-.76.83-.53 1.29zm1.2 2.2c.16.08.31.16.54.24l.02-.07c.07-.2.12-.33-.02-.47 0-.15-.3-.23-.46-.15-.15.15-.22.3-.07.46zm-.52 3.81c-.12-.04-.21-.05-.3-.07-.1-.02-.2-.04-.31-.08.3-.23.3-.23.6.15zm-3.66-1.82c-.04 0-.07-.02-.11-.04a.27.27 0 00-.12-.04c0-.04.02-.06.04-.08.02-.02.04-.03.04-.07.04 0 .08.02.11.04l.12.03s-.08.08-.08.16zM93.6 24.79l2.89 3.65 1.32-.27c.01.03.03.04.05.04.05.05.13.04.22.02a.9.9 0 01.16-.02.66.66 0 01-.05-.11l2.86-.57-.17.27-.36.1.26.05-2.24 3.53 2.28 4.04-4.49-1.14-3.2 3.34-.3-4.64-4.18-1.98 4.34-1.67.6-4.64zm.22 6.16c.08-.08.08-.08.08-.15l-.84-.46s0 .08-.07.08a.4.4 0 00-.1.16c0 .04-.03.08-.06.14l1 .23zm2.67 2.13l.76-.6s0-.08-.08-.08a.36.36 0 01-.06-.11c-.04-.07-.07-.15-.17-.2-.03 0-.05-.02-.07-.04-.02-.01-.04-.03-.08-.03l-.3.91c-.08 0-.16-.08-.16-.08s0 .08.08.08c0 0 0 .08.08.15zm-2.06-1.98v1l.08.37.15.46c.04 0 .06-.02.08-.04.02-.02.03-.04.07-.04.23-.15.38-.38.54-.68v-.15c.07-.38-.16-.92-.92-.92zm-1.14-.76c0 .08.23.15.46.23 0-.14.03-.26.05-.34a.5.5 0 00.02-.12c-.07-.22-.3-.3-.45-.15-.08.08-.16.3-.08.38zM59.65 34.6l2.97 3.58 4.56-.91-2.5 3.96 2.2 4.03-4.5-1.14-3.11 3.35-.3-4.57-4.2-2.05 4.35-1.68.53-4.57zm1.72 5.53c.3.04.53.07.64.18.15.15.07.54 0 .76-.08.08-.53.08-.69 0-.09-.13-.12-.3-.17-.5l-.13-.49.35.05zm-1.34-.2c.15-.07.23-.15.38-.3-.15-.08-.3-.15-.38-.15-.11.1-.14.18-.18.27l-.05.1c.04 0 .08.02.12.04.03.02.07.04.11.04zM49.98 103.1c.16-.45.08-1.06-.07-1.67-.1-.35-.24-.64-.43-.9l-.03-.01-2.51-1 1.25.04a3.28 3.28 0 00-2.24.04l-3.35 1 3.12 10.95 3.88-1.14a2.84 2.84 0 001.83-1.37c.38-.68.46-1.45.3-2.2a3.96 3.96 0 00-.83-1.6c-.38-.39-.92-.61-1.68-.69.3-.46.61-.91.76-1.45zm-4.64-1.52l.3-.07c1-.3 1.6.07 1.9 1.06.16.46.08.84-.07 1.14-.15.3-.45.54-.84.69l-.45.15-.84-2.97zm3.65 6.55c-.15.3-.45.53-.83.68l-.69.23-.84-2.9.46-.14c1-.3 1.6.07 1.9.99.16.45.16.83 0 1.14zM89.94 99c-.91.22-1.75.22-2.43-.08a4.16 4.16 0 01-1.83-1.37c-.46-.69-.91-1.68-1.3-2.97-.6-2.06-.68-3.65-.22-4.72a3.6 3.6 0 012.43-2.13c.92-.3 1.75-.3 2.44 0 .68.3 1.3.76 1.82 1.45.46.68.92 1.67 1.3 2.96.6 1.98.68 3.5.3 4.5l1.53 1.21-1 1.22L91.7 98c-.53.46-1.06.77-1.75 1zm-2.66-9.14c-.38.15-.69.46-.84.91-.15.46-.08 1.37.46 2.82.3 1.14.53 1.9.76 2.28.23.38.45.69.76.84.23.15.6.15.91.08l.12-.06c.14-.06.3-.13.42-.25l-1.9-1.52.98-1.22 1.52 1.52-.2-.74c-.12-.5-.22-.9-.33-1.16l-.2-.62.5.17-.45-.23-.07-.03c-.25-.81-.44-1.36-.62-1.72a2.24 2.24 0 00-.76-.92c-.3-.23-.68-.23-1.06-.15zm-2.44 4.57l.76.6v.08c0 .05-.03.07-.07.1-.02 0-.05.03-.08.05l-.08.08-.76-.68.23-.23zm5.94 2.89l-.06-.08a.38.38 0 00-.17-.15l-.6.76s0 .08.07.08l.15.15.23.69c.3-.08.45-.3.53-.54.08-.15.08-.38.08-.53v-.15l-.23-.23zM111.48 90.62l.84 1.6 2.28-.68-3.91-6.77a2.12 2.12 0 01-1.34-1c-.2-.4-.19-.92-.03-1.36l-.58-1-2.36.69v3.36l.46.3-.08.07v.07l-.38-.3v8.3l2.29-.7-.08-1.82 2.9-.76zm-3.2-6.09l2.36 4.5-2.13.6-.23-5.1z" clip-rule="evenodd"/><path fill="#6D6A46" d="M165.83 34.47l1.85 6.45-11.37 3.26.4 1.39 10.48-3 1.67 5.83-10.48 3 .4 1.42 11.38-3.26 1.84 6.42-19.54 5.6-6.17-21.5 19.54-5.6z"/><path fill="#6D6A46" fill-rule="evenodd" d="M132.73 43.96l-12.85 3.69 6.17 21.5 12.84-3.68c7.38-2.11 10.07-7.34 8.17-13.98-1.9-6.63-6.96-9.64-14.33-7.53zm2.92 14.5l-3.5 1-1.95-6.8 3.5-1c2.74-.78 4.27.28 4.84 2.27.58 2-.15 3.74-2.89 4.53z" clip-rule="evenodd"/><path fill="#6D6A46" d="M117.11 48.44l2.1 7.31-3.41.98 1.97 6.89 3.41-.98 2.1 7.31-15 4.3-2.1-7.31 3.42-.98-1.97-6.88-3.42.97-2.1-7.3 15-4.3zM90.73 56l.35 15.27-1.17.33-7.79-13.13-9.24 2.66 13.5 19.4 12.42-3.56 1.18-23.62-9.25 2.66z"/><path fill="#6D6A46" fill-rule="evenodd" d="M49.74 79.4c-2.2-7.68 2-12.84 9.77-15.07 7.78-2.23 14.08-.08 16.28 7.6 2.2 7.65-2 12.84-9.77 15.07-7.78 2.23-14.09.05-16.28-7.6zm8.9-2.55c.64 2.2 2.58 3.18 5.16 2.44 2.59-.74 3.72-2.6 3.08-4.8-.63-2.22-2.58-3.22-5.16-2.48-2.59.74-3.7 2.62-3.07 4.84zM43.24 92.9l8.79-2.52-6.12-6.26c1.44-1.8 1.74-4.12.92-6.98-1.51-5.28-5.3-7.02-11.57-5.23l-12.7 3.64 6.17 21.51 8.2-2.35-1.64-5.75 3.53-1.01 4.42 4.95zm-10.7-13.55l3.71-1.07c1.35-.39 2.15-.28 2.56 1.16.4 1.41-.21 1.92-1.56 2.31l-3.72 1.07-1-3.47zM10.97 78.88L0 82.02l6.17 21.51 8.2-2.35-1.39-4.86 2.77-.79c6.23-1.79 8.4-5.7 6.89-10.99-1.52-5.28-5.43-7.45-11.67-5.66zm1.74 10.24l-1.66.48-.92-3.2 1.66-.48c1.6-.45 2.5-.35 2.86.91.35 1.23-.34 1.83-1.94 2.29z" clip-rule="evenodd"/></svg>