<svg xmlns="http://www.w3.org/2000/svg" fill="none" viewBox="0 0 682 174"><defs/><path fill="#000" d="M123.6 107.7c0-.4 0-.9-.5-.5-.4.4-.5.5-1 0l-.3-.4c.5-.7.2-1.3-.4-1.9-.7-.5-3.8-3.6-4.5-5.6-.6-2 1.2-13.4.8-15-.3-1.5-3-3.7-3-4.2l.1-3.3 1.3-1.5c.6.2 2.6.1 4.1.9 1.7.8 1.2.1 2.5.1s6.8 0 7.4-.6c.7-.5.7-.2.7-.2.3.4 3.5 2 4.6 2.4 1 .4 2.4.8 2.9.4.4-.5.4-.4 1-.3.6 0 .5.6.5.6.4 2.3.7-.5.6-1.2 0-.8-1.3-.6-2.7-1.3-1.3-.6-5.4-1.5-6.2-1.8-.8-.3-1.5-.6-2.2-.5l-4.8 1.2c-1.3.3-1.2 0-1.2 0a10.2 10.2 0 00-4.6-2.9c-.8-.2-.6-.7-.6-.7 3.1-4.4 3.3-7.2 3.5-8.2.2-.9.3.2 1.8-1.5 1.6-1.7 1.4-3.7 1-4.4-.2-.7-1-1.7-1-1.7 1-.8 3-.8 3-.8 3.3.3 5.9 1.4 9 3 3 1.4 5 2.8 5.5 2.5.5-.3-.8-1.4-3.7-2.7A34.5 34.5 0 00126 54c-3 0-3.6.9-3.6.9l-1-1.1h-.1l-1-1.1s.7-.7.8-3.6c.1-2.9-2.2-8.5-3.6-11.3-1.3-2.9-2.4-4.2-2.7-3.7-.3.5 1 2.5 2.6 5.6 1.5 3 2.6 5.6 3 9 0 0 0 2-.9 3 0 0-1-.9-1.7-1.2-.7-.3-2.8-.5-4.4 1-1.7 1.6-.6 1.7-1.5 1.9-1 .2-3.8.4-8.2 3.5 0 0-.5.2-.7-.6-.2-.7-.8-2.4-3-4.6 0 0-.2.1.1-1.2l1.2-4.8c.1-.7-.2-1.4-.5-2.2-.3-.8-1.2-4.9-1.8-6.2-.7-1.4-.5-2.7-1.3-2.7-.7 0-3.5.2-1.2.6 0 0 .5-.1.6.5.1.6.2.6-.3 1-.4.5 0 1.9.4 3 .3 1 2 4.2 2.4 4.5 0 0 .3 0-.2.7-.6.6-.6 6-.6 7.4 0 1.3-.7.8.1 2.5.8 1.5.7 3.5.8 4v.1l-1.4 1.3H95c-.5 0-2.7-2.6-4.3-3-1.5-.3-12.9 1.5-15 .9-2-.7-5-3.8-5.5-4.5-.6-.6-1.2-1-1.9-.4l-.4-.3c-.5-.5-.4-.6 0-1s-.1-.6-.5-.5c-.4 0-3 1.5-1.9 2.4 1.1 1 0-.5.4-.5.3-.1.6.4.9.7l1 1.3c.3.3 3 3.6 7.5 3.9 0 0 .6.2 1 .8.5.6 1.2 0 2.7-.1 1.6 0 8-1.4 9.2-1.2 1.3.1.6.5 1.1 1.2l2.6 3-15.1 14.8-4-1c-.7 0-2.3-.9-5.1.8-2.8 1.7-11.9 9.9-12.9 9.9s-3.5-.8-4.2-.4c-.7.4-1 .2-1.8.4-.8.1-4-.2-4.8.2-.8.4-1.8-.1-2.2.2-.3.3-1.4 1.6 0 3 0 0-.4-1.6.2-1.6.6 0 1.6 0 2.2.7.7.7 2.1.3 3.3.1 1.2-.2 2.5-1 4.1-1.2 1.7-.3 4 1 5.7-.5 1.7-1.5 11-10 11.6-10 .6 0 1 1 1.7 1.3l3.2 1s-11.2 12-16.7 20.1c-5.5 8.2-12.7 21-8.3 25.6 4.5 4.4 17.4-2.8 25.6-8.3 8.2-5.5 20.1-16.7 20.1-16.7l1 3.2c.2.7 1.4 1.1 1.3 1.7 0 .6-8.5 9.9-10 11.6-1.5 1.6-.2 4-.5 5.7-.2 1.6-1 2.9-1.2 4-.2 1.3-.6 2.7 0 3.4.7.6.8 1.6.8 2.2 0 .6-1.5.2-1.5.2 1.3 1.4 2.6.3 2.9 0 .3-.4-.2-1.4.2-2.2.4-.9 0-4 .2-4.8.2-.8 0-1 .4-1.8.4-.7-.4-3.3-.4-4.2 0-1 8.2-10 9.9-12.9 1.7-2.8.9-4.4.7-5.2l-.9-3.9c.2 0 14.7-15 14.7-15l3.1 2.5c.7.5 1-.2 1.2 1 .2 1.4-1.2 7.7-1.2 9.3 0 1.5-.7 2.2-.1 2.7.6.4.8 1 .8 1 .3 4.4 3.6 7.2 4 7.5l1.2 1c.3.3.8.6.7 1 0 .3-1.5-.8-.5.3 1 1 2.4-1.5 2.4-1.9z"/><path fill="#11D200" fill-rule="evenodd" d="M87 16a70.7 70.7 0 00-49.5 20c32.7 14.3 86 47.9 114 101.5 2.2 4 1 6.8-1.2 9.2a87 87 0 1114-19.7c-4.2-7.3-11.9-16.5-18.2-24-3.3-4-6.2-7.4-8.1-10a75 75 0 016.4 6.2c5.8 6 10.4 11 12.3 1.3A71 71 0 0087 16zM16 87c0-14 4-27 11-38 36 6.5 127.2 72.8 107.6 90.7A71 71 0 0116 87z" clip-rule="evenodd"/><path fill="#11D200" d="M666.3 129h-3v-6.4h17.9v19h-8.6v-2.2a16 16 0 01-10.2 3c-11.8 0-20-7.7-20-18.6 0-10.8 8.2-18.6 20-18.6 10.6 0 18.1 6.8 18.8 15.3h-13.5c-.6-1.4-2.3-2.6-4.9-2.6-3.4 0-5.6 2.6-5.6 6 0 3.3 1.6 6.8 5.6 6.9 1.7 0 2.8-.5 3.5-1.2v-.6zM230.8 116.8v-10.6H201v35.3h29.8V131h-16.3v-2.3h14.8V119h-14.8v-2.2h16.3zM257.6 141.5h14.9l-8-18.4 7.5-17h-14.4l-4 11.7h-.9l-4-11.6h-14.4l7.4 17-8 18.3h15l4-11.6h.8l4 11.6zM274.3 106.2h35.4v12h-11v23.3h-13.4v-23.3h-11v-12zM343.2 116.8v-10.6h-29.8v35.3h29.8V131h-16.3v-2.3h14.8V119H327v-2.2h16.3z"/><path fill="#11D200" fill-rule="evenodd" d="M382.6 141.5h-14.4l-4.5-9.4h-3v9.4h-13.5v-35.3h18c10.3 0 15.3 4.3 15.3 13 0 4.6-1.4 8-4.4 10.1l6.5 12.2zm-15.2-22.4c0-2-1.2-2.8-3.4-2.8h-3.3v5.7h3.3c2.2 0 3.4-.8 3.4-2.9z" clip-rule="evenodd"/><path fill="#11D200" d="M415.7 106.2l-4.1 20.4h-.4l-4-20.4h-21.5v35.3h13.5v-23.3h.3l4.8 23.3h14.3l4.7-23.3h.3v23.3h13.5v-35.3h-21.4zM441.7 141.5v-35.3h13.5v35.3h-13.5zM485.4 106.2v17.5h-.4l-8-17.5h-17.3v35.3h13.5V124h.4l8.4 17.6h16.9v-35.3h-13.5z"/><path fill="#11D200" fill-rule="evenodd" d="M543.5 141.5h-14.4l-1.3-5.6h-9.6l-1.3 5.6h-14.5l10.6-35.3h20l10.5 35.3zm-21.2-23.3l-1.7 7.2h4.8l-1.7-7.2h-1.4z" clip-rule="evenodd"/><path fill="#11D200" d="M577.7 106.2h-35.4v12h11v23.3h13.4v-23.3h11v-12zM581.4 141.5v-35.3H595v35.3h-13.5zM625.2 106.2v17.5h-.4l-8-17.5h-17.3v35.3H613V124h.3l8.5 17.6h16.8v-35.3h-13.4z"/><path fill="#FFE500" d="M253.8 49.8V31H201v62.8h52.8V75H225v-4h26.2V53.8H225v-4h28.8zM301.5 93.8h26.4l-14-32.7L327 31h-25.6l-7.2 20.7h-1.4L285.8 31H260l13.2 30.1-14 32.7h26.5l7-20.7h1.5l7.2 20.7zM331.2 31H394v21.4h-19.5v41.4h-23.9V52.4h-19.4V31z"/><path fill="#FFE500" fill-rule="evenodd" d="M437.9 93.8h25.7L452 72.2c5.2-3.8 7.8-9.8 7.8-18.1 0-15.5-8.9-23.1-27.1-23.1h-32v62.8h24V77h5.1l8 16.8zm-7.5-44.9c3.9 0 6 1.4 6 5.2 0 3.6-2.1 5-6 5h-5.8V48.9h5.8z" clip-rule="evenodd"/><path fill="#FFE500" d="M521.8 31v18.8h-29v4h26.3V71H493v4h28.9v18.9h-52.9V31h52.9zM582.2 31L575 67.3h-.6L567 31h-38v62.8h23.9V52.4h.5l8.5 41.4h25.4l8.5-41.4h.5v41.4h24V31h-38zM681.2 31v18.8h-28.9v4h26.3V71h-26.3v4h28.9v18.9h-52.8V31h52.8zM166 142C138 88.4 87.2 50.3 54.5 40 108 68.5 129.3 94 166 142z"/></svg>